<svg xmlns="http://www.w3.org/2000/svg" width="900" height="360" viewBox="0 0 900 360" role="img" aria-labelledby="title desc">
  <title id="title">GPU Travelling: Efficient Confidential Collaborative Training with TEE-Enabled GPUs figure</title>
  <desc id="desc">Conceptual diagram for Hardware Security paper review.</desc>
  <rect width="900" height="360" rx="18" fill="#f8fafc"/>
  <rect x="24" y="24" width="852" height="312" rx="16" fill="#ffffff" stroke="#d8dee8"/>
  <text x="46" y="68" font-family="-apple-system, BlinkMacSystemFont, Segoe UI, Helvetica, Arial, sans-serif" font-size="18" font-weight="700" fill="#111827">Hardware Security</text>
  <text x="46" y="105" font-family="-apple-system, BlinkMacSystemFont, Segoe UI, Helvetica, Arial, sans-serif" font-size="22" font-weight="700" fill="#111827">GPU Travelling: Efficient Confidential Collaborative</text>
      <text x="46" y="131" font-family="-apple-system, BlinkMacSystemFont, Segoe UI, Helvetica, Arial, sans-serif" font-size="22" font-weight="700" fill="#111827">Training with TEE-Enabled GPUs</text>
  <text x="46" y="167" font-family="-apple-system, BlinkMacSystemFont, Segoe UI, Helvetica, Arial, sans-serif" font-size="14" fill="#64748b">CCS 2025</text>
  <rect x="46" y="198" width="136" height="92" rx="12" fill="#334155" opacity="0.11" stroke="#334155"/>
      <circle cx="72" cy="226" r="10" fill="#334155"/>
      <text x="92" y="232" font-family="-apple-system, BlinkMacSystemFont, Segoe UI, Helvetica, Arial, sans-serif" font-size="13" font-weight="700" fill="#111827">Workload</text>
      <text x="64" y="266" font-family="-apple-system, BlinkMacSystemFont, Segoe UI, Helvetica, Arial, sans-serif" font-size="12" fill="#475569">input</text>
      <path d="M186 244 H195" stroke="#94a3b8" stroke-width="2"/><path d="M195 244 l-7 -5 v10 z" fill="#94a3b8"/>
      <rect x="200" y="198" width="136" height="92" rx="12" fill="#dc2626" opacity="0.11" stroke="#dc2626"/>
      <circle cx="226" cy="226" r="10" fill="#dc2626"/>
      <text x="246" y="232" font-family="-apple-system, BlinkMacSystemFont, Segoe UI, Helvetica, Arial, sans-serif" font-size="13" font-weight="700" fill="#111827">Trusted Boundary</text>
      <text x="218" y="266" font-family="-apple-system, BlinkMacSystemFont, Segoe UI, Helvetica, Arial, sans-serif" font-size="12" fill="#475569">analysis</text>
      <path d="M340 244 H349" stroke="#94a3b8" stroke-width="2"/><path d="M349 244 l-7 -5 v10 z" fill="#94a3b8"/>
      <rect x="354" y="198" width="136" height="92" rx="12" fill="#2563eb" opacity="0.11" stroke="#2563eb"/>
      <circle cx="380" cy="226" r="10" fill="#2563eb"/>
      <text x="400" y="232" font-family="-apple-system, BlinkMacSystemFont, Segoe UI, Helvetica, Arial, sans-serif" font-size="13" font-weight="700" fill="#111827">Memory / Cache</text>
      <text x="372" y="266" font-family="-apple-system, BlinkMacSystemFont, Segoe UI, Helvetica, Arial, sans-serif" font-size="12" fill="#475569">analysis</text>
      <path d="M494 244 H503" stroke="#94a3b8" stroke-width="2"/><path d="M503 244 l-7 -5 v10 z" fill="#94a3b8"/>
      <rect x="508" y="198" width="136" height="92" rx="12" fill="#334155" opacity="0.11" stroke="#334155"/>
      <circle cx="534" cy="226" r="10" fill="#334155"/>
      <text x="554" y="232" font-family="-apple-system, BlinkMacSystemFont, Segoe UI, Helvetica, Arial, sans-serif" font-size="13" font-weight="700" fill="#111827">Attestation</text>
      <text x="526" y="266" font-family="-apple-system, BlinkMacSystemFont, Segoe UI, Helvetica, Arial, sans-serif" font-size="12" fill="#475569">analysis</text>
      <path d="M648 244 H657" stroke="#94a3b8" stroke-width="2"/><path d="M657 244 l-7 -5 v10 z" fill="#94a3b8"/>
      <rect x="662" y="198" width="136" height="92" rx="12" fill="#dc2626" opacity="0.11" stroke="#dc2626"/>
      <circle cx="688" cy="226" r="10" fill="#dc2626"/>
      <text x="708" y="232" font-family="-apple-system, BlinkMacSystemFont, Segoe UI, Helvetica, Arial, sans-serif" font-size="13" font-weight="700" fill="#111827">Overhead</text>
      <text x="680" y="266" font-family="-apple-system, BlinkMacSystemFont, Segoe UI, Helvetica, Arial, sans-serif" font-size="12" fill="#475569">takeaway</text>
      
</svg>
