<svg xmlns="http://www.w3.org/2000/svg" width="900" height="360" viewBox="0 0 900 360" role="img" aria-labelledby="title desc">
  <title id="title">Balancing Methods for Multi-label Text Classification with Long-Tailed Class Distribution figure</title>
  <desc id="desc">Conceptual diagram for Machine Learning paper review.</desc>
  <rect width="900" height="360" rx="18" fill="#f8fafc"/>
  <rect x="24" y="24" width="852" height="312" rx="16" fill="#ffffff" stroke="#d8dee8"/>
  <text x="46" y="68" font-family="-apple-system, BlinkMacSystemFont, Segoe UI, Helvetica, Arial, sans-serif" font-size="18" font-weight="700" fill="#111827">Machine Learning</text>
  <text x="46" y="105" font-family="-apple-system, BlinkMacSystemFont, Segoe UI, Helvetica, Arial, sans-serif" font-size="22" font-weight="700" fill="#111827">Balancing Methods for Multi-label Text Classification</text>
      <text x="46" y="131" font-family="-apple-system, BlinkMacSystemFont, Segoe UI, Helvetica, Arial, sans-serif" font-size="22" font-weight="700" fill="#111827">with Long-Tailed Class Distribution</text>
  <text x="46" y="167" font-family="-apple-system, BlinkMacSystemFont, Segoe UI, Helvetica, Arial, sans-serif" font-size="14" fill="#64748b">EMNLP 2021</text>
  <rect x="46" y="198" width="136" height="92" rx="12" fill="#2563eb" opacity="0.11" stroke="#2563eb"/>
      <circle cx="72" cy="226" r="10" fill="#2563eb"/>
      <text x="92" y="232" font-family="-apple-system, BlinkMacSystemFont, Segoe UI, Helvetica, Arial, sans-serif" font-size="13" font-weight="700" fill="#111827">Labels</text>
      <text x="64" y="266" font-family="-apple-system, BlinkMacSystemFont, Segoe UI, Helvetica, Arial, sans-serif" font-size="12" fill="#475569">input</text>
      <path d="M186 244 H195" stroke="#94a3b8" stroke-width="2"/><path d="M195 244 l-7 -5 v10 z" fill="#94a3b8"/>
      <rect x="200" y="198" width="136" height="92" rx="12" fill="#10b981" opacity="0.11" stroke="#10b981"/>
      <circle cx="226" cy="226" r="10" fill="#10b981"/>
      <text x="246" y="232" font-family="-apple-system, BlinkMacSystemFont, Segoe UI, Helvetica, Arial, sans-serif" font-size="13" font-weight="700" fill="#111827">Imbalance</text>
      <text x="218" y="266" font-family="-apple-system, BlinkMacSystemFont, Segoe UI, Helvetica, Arial, sans-serif" font-size="12" fill="#475569">analysis</text>
      <path d="M340 244 H349" stroke="#94a3b8" stroke-width="2"/><path d="M349 244 l-7 -5 v10 z" fill="#94a3b8"/>
      <rect x="354" y="198" width="136" height="92" rx="12" fill="#f59e0b" opacity="0.11" stroke="#f59e0b"/>
      <circle cx="380" cy="226" r="10" fill="#f59e0b"/>
      <text x="400" y="232" font-family="-apple-system, BlinkMacSystemFont, Segoe UI, Helvetica, Arial, sans-serif" font-size="13" font-weight="700" fill="#111827">Reweighting</text>
      <text x="372" y="266" font-family="-apple-system, BlinkMacSystemFont, Segoe UI, Helvetica, Arial, sans-serif" font-size="12" fill="#475569">analysis</text>
      <path d="M494 244 H503" stroke="#94a3b8" stroke-width="2"/><path d="M503 244 l-7 -5 v10 z" fill="#94a3b8"/>
      <rect x="508" y="198" width="136" height="92" rx="12" fill="#2563eb" opacity="0.11" stroke="#2563eb"/>
      <circle cx="534" cy="226" r="10" fill="#2563eb"/>
      <text x="554" y="232" font-family="-apple-system, BlinkMacSystemFont, Segoe UI, Helvetica, Arial, sans-serif" font-size="13" font-weight="700" fill="#111827">Classifier</text>
      <text x="526" y="266" font-family="-apple-system, BlinkMacSystemFont, Segoe UI, Helvetica, Arial, sans-serif" font-size="12" fill="#475569">analysis</text>
      <path d="M648 244 H657" stroke="#94a3b8" stroke-width="2"/><path d="M657 244 l-7 -5 v10 z" fill="#94a3b8"/>
      <rect x="662" y="198" width="136" height="92" rx="12" fill="#10b981" opacity="0.11" stroke="#10b981"/>
      <circle cx="688" cy="226" r="10" fill="#10b981"/>
      <text x="708" y="232" font-family="-apple-system, BlinkMacSystemFont, Segoe UI, Helvetica, Arial, sans-serif" font-size="13" font-weight="700" fill="#111827">Macro Metrics</text>
      <text x="680" y="266" font-family="-apple-system, BlinkMacSystemFont, Segoe UI, Helvetica, Arial, sans-serif" font-size="12" fill="#475569">takeaway</text>
      
</svg>
